<svg width="20" height="20" viewBox="0 0 20 20" fill="none" xmlns="http://www.w3.org/2000/svg">
<path d="M0.75 3.29158C0.75 2.33685 1.75473 1.71589 2.60867 2.14286C3.50235 2.5897 4.56695 2.52342 5.39831 1.96918L4.98228 1.34515L5.39831 1.96918L5.91603 1.62404C6.57243 1.18644 7.42757 1.18644 8.08397 1.62404C9.24423 2.39754 10.7558 2.39754 11.916 1.62404C12.5724 1.18644 13.4276 1.18644 14.084 1.62404L14.6017 1.96918C15.4331 2.52342 16.4976 2.5897 17.3913 2.14286L17.0559 1.47204L17.3913 2.14286C18.2453 1.71589 19.25 2.33685 19.25 3.29158V16C19.25 17.7949 17.7949 19.25 16 19.25H4C2.20507 19.25 0.75 17.7949 0.75 16V3.29158Z" stroke="#909090" stroke-width="1.5"/>
<line x1="4.75" y1="6.25" x2="15.25" y2="6.25" stroke="#909090" stroke-width="1.5" stroke-linecap="round"/>
<line x1="12.75" y1="11.25" x2="15.25" y2="11.25" stroke="#909090" stroke-width="1.5" stroke-linecap="round"/>
<line x1="12.75" y1="15.25" x2="15.25" y2="15.25" stroke="#909090" stroke-width="1.5" stroke-linecap="round"/>
<mask id="path-5-inside-1_69_837" fill="white">
<rect x="4" y="10" width="6" height="6" rx="1"/>
</mask>
<rect x="4" y="10" width="6" height="6" rx="1" stroke="#909090" stroke-width="3" mask="url(#path-5-inside-1_69_837)"/>
</svg>
