<svg width="18" height="18" viewBox="0 0 18 18" fill="none" xmlns="http://www.w3.org/2000/svg">
<path d="M17.25 9C17.25 10.0834 17.0366 11.1562 16.622 12.1571C16.2074 13.1581 15.5997 14.0675 14.8336 14.8336C14.0675 15.5997 13.1581 16.2074 12.1571 16.622C11.1562 17.0366 10.0834 17.25 9 17.25C7.91659 17.25 6.8438 17.0366 5.84286 16.622C4.84193 16.2074 3.93245 15.5997 3.16637 14.8336C2.40029 14.0675 1.79259 13.1581 1.37799 12.1571C0.963392 11.1562 0.75 10.0834 0.75 9C0.75 7.91659 0.963393 6.8438 1.37799 5.84286C1.7926 4.84192 2.40029 3.93245 3.16637 3.16637C3.93245 2.40029 4.84193 1.79259 5.84286 1.37799C6.8438 0.963392 7.9166 0.75 9 0.75C10.0834 0.75 11.1562 0.963393 12.1571 1.37799C13.1581 1.7926 14.0675 2.40029 14.8336 3.16637C15.5997 3.93245 16.2074 4.84193 16.622 5.84286C17.0366 6.8438 17.25 7.9166 17.25 9L17.25 9Z" stroke="#909090" stroke-width="1.5" stroke-linecap="round"/>
<path d="M9 9.87144V9.64415C9 8.90802 9.50606 8.51828 10.0121 8.20435C10.5061 7.90124 11 7.51153 11 6.79706C11 5.80112 10.1085 5 9 5C7.89155 5 7 5.80112 7 6.79706" stroke="#909090" stroke-width="1.5" stroke-linecap="round" stroke-linejoin="round"/>
<path d="M8.99446 12.4587H9.0053" stroke="#909090" stroke-width="1.5" stroke-linecap="round" stroke-linejoin="round"/>
</svg>
